<svg width="140" height="50" viewBox="0 0 140 50" fill="none" xmlns="http://www.w3.org/2000/svg">
<g clip-path="url(#clip0_86017_32)">
<path d="M69.3008 15.4453L75.9174 15.03C76.0616 16.1055 76.3536 16.9243 76.7932 17.4864C77.5113 18.3974 78.5348 18.853 79.8636 18.853C80.8552 18.853 81.6203 18.6206 82.1589 18.1558C82.4055 17.9629 82.6058 17.7172 82.7452 17.4367C82.8846 17.1563 82.9594 16.8482 82.9642 16.5351C82.9601 16.2349 82.8904 15.9392 82.76 15.6688C82.6296 15.3983 82.4416 15.1597 82.2092 14.9696C81.7058 14.5099 80.5188 14.0745 78.648 13.6635C75.5977 12.9789 73.4224 12.0678 72.1221 10.9303C71.4894 10.4003 70.9841 9.73456 70.6438 8.98255C70.3035 8.23055 70.137 7.41157 70.1565 6.58639C70.1614 5.42028 70.5117 4.28175 71.1632 3.31464C71.9074 2.22462 72.9585 1.3802 74.1833 0.888501C75.5256 0.299585 77.3712 0.00512695 79.7201 0.00512695C82.5959 0.00512695 84.7888 0.540353 86.2989 1.6108C87.8089 2.68126 88.7074 4.38257 88.9943 6.71475L82.4382 7.09729C82.2704 6.0906 81.9047 5.35403 81.3409 4.8876C80.7772 4.42116 80.0054 4.18878 79.0255 4.19046C78.2177 4.19046 77.6086 4.36411 77.2009 4.70639C77.0083 4.85448 76.8526 5.04515 76.7461 5.26348C76.6396 5.4818 76.585 5.72183 76.5868 5.96476C76.5929 6.15327 76.6413 6.338 76.7284 6.50528C76.8156 6.67256 76.9392 6.81812 77.0902 6.93119C77.4173 7.22816 78.195 7.505 79.4232 7.76171C82.4634 8.41606 84.6446 9.0788 85.9667 9.74993C87.2888 10.4211 88.2452 11.2524 88.8358 12.244C89.4385 13.2499 89.7496 14.4036 89.7342 15.5762C89.7415 16.996 89.3253 18.3857 88.5388 19.5677C87.7202 20.8002 86.5557 21.7633 85.1915 22.3361C83.757 22.9653 81.95 23.2799 79.7705 23.2799C75.9434 23.2799 73.2924 22.5433 71.8176 21.0702C70.3428 19.5971 69.5039 17.7221 69.3008 15.4453V15.4453ZM1.57799 22.9024V0.385154H13.1701C15.3194 0.385154 16.962 0.568876 18.0979 0.936319C19.2167 1.29369 20.1841 2.01476 20.8461 2.98494C21.5667 4.06179 21.9336 5.33654 21.8956 6.63169C21.9248 7.76192 21.6464 8.87884 21.0903 9.86318C20.5565 10.7757 19.8007 11.5384 18.8931 12.0804C18.1301 12.5013 17.3067 12.8018 16.4519 12.9714C17.0915 13.1597 17.7008 13.4385 18.2614 13.7994C18.6781 14.1457 19.0531 14.5393 19.3789 14.9722C19.7454 15.4024 20.0699 15.8668 20.3478 16.3589L23.7152 22.9024H15.8554L12.1407 16.0141C11.6693 15.1232 11.2498 14.5443 10.8824 14.2775C10.3817 13.9305 9.78516 13.7484 9.17602 13.7566H8.5569V22.9024H1.57799ZM8.5569 9.50329H11.4965C12.1186 9.45684 12.7352 9.35407 13.3387 9.19625C13.7897 9.10972 14.192 8.85741 14.4662 8.48905C14.7562 8.11695 14.9107 7.65709 14.9041 7.18538C14.923 6.87221 14.8706 6.55883 14.7507 6.26891C14.6308 5.97898 14.4466 5.72008 14.212 5.51175C13.7523 5.12249 12.8874 4.92786 11.6173 4.92786H8.5569V9.50329ZM0 42.1705L6.6165 41.7578C6.76079 42.8333 7.05273 43.652 7.49232 44.2141C8.20204 45.1252 9.22803 45.5807 10.5703 45.5807C11.5619 45.5807 12.327 45.3475 12.8656 44.8811C13.1122 44.6881 13.3125 44.4424 13.4519 44.1619C13.5913 43.8815 13.6661 43.5734 13.6709 43.2603C13.6665 42.9601 13.5966 42.6646 13.4662 42.3942C13.3358 42.1238 13.148 41.8852 12.9159 41.6949C12.4125 41.2351 11.2255 40.8006 9.35471 40.3912C6.30442 39.7033 4.12913 38.7922 2.82881 37.658C2.19614 37.1274 1.69096 36.4612 1.35071 35.7088C1.01046 34.9564 0.843855 34.1371 0.863241 33.3116C0.868811 32.1456 1.21906 31.0073 1.86994 30.0399C2.61408 28.9498 3.66522 28.1054 4.89002 27.6137C6.23228 27.0248 8.07789 26.7304 10.4268 26.7304C13.3026 26.7304 15.4955 27.2656 17.0056 28.336C18.5156 29.4065 19.4141 31.1078 19.701 33.44L13.1575 33.825C12.9897 32.8183 12.6239 32.0809 12.0602 31.6128C11.4965 31.1447 10.7255 30.9148 9.74732 30.9232C8.94029 30.9232 8.33208 31.091 7.92269 31.4266C7.73011 31.5747 7.57444 31.7653 7.4679 31.9837C7.36136 32.202 7.30684 32.442 7.3086 32.6849C7.31434 32.8739 7.36257 33.0591 7.44971 33.2269C7.53685 33.3946 7.66066 33.5406 7.81195 33.6539C8.13913 33.9509 8.9168 34.2269 10.145 34.4819C13.1852 35.1362 15.3664 35.799 16.6885 36.4701C18.0106 37.1413 18.967 37.9726 19.5576 38.9642C20.1599 39.9703 20.471 41.1239 20.456 42.2964C20.4636 43.7162 20.0473 45.106 19.2606 46.2879C18.442 47.5204 17.2775 48.4835 15.9133 49.0563C14.4788 49.6855 12.6718 50.0001 10.4923 50.0001C6.66516 50.0001 4.01419 49.2635 2.53939 47.7904C1.06458 46.3173 0.218117 44.444 0 42.1705ZM41.0228 40.4063L47.1183 42.2485C46.7812 43.7949 46.1217 45.2528 45.183 46.527C44.3275 47.6529 43.2023 48.5452 41.9112 49.1218C40.6059 49.704 38.9448 49.9951 36.9281 49.9951C34.4818 49.9951 32.4835 49.6402 30.9332 48.9305C29.3829 48.2208 28.0406 46.9699 26.9064 45.178C25.7789 43.3878 25.216 41.0967 25.2177 38.3048C25.2177 34.5834 26.2076 31.7219 28.1874 29.7202C30.1673 27.7186 32.9692 26.7186 36.5933 26.7203C39.4305 26.7203 41.6595 27.2941 43.2803 28.4417C44.9011 29.5894 46.1058 31.3511 46.8943 33.7269L40.7535 35.0935C40.6093 34.5578 40.3817 34.0483 40.079 33.5834C39.7071 33.067 39.2181 32.6461 38.652 32.3553C38.0654 32.063 37.4173 31.9154 36.762 31.9249C35.1865 31.9249 33.9793 32.5591 33.1404 33.8275C32.5028 34.7688 32.1849 36.2461 32.1865 38.2595C32.1865 40.7528 32.5657 42.4625 33.3241 43.3886C34.0825 44.3148 35.1471 44.777 36.5178 44.7754C37.8467 44.7754 38.8534 44.402 39.5379 43.6554C40.2225 42.9088 40.7174 41.8257 41.0228 40.4063V40.4063ZM52.4765 27.1104H59.4302V34.9827H67.0308V27.1104H74.0147V49.6175H67.0308V40.5195H59.4302V49.6251H52.4765V27.1104ZM78.3435 38.3778C78.3435 34.7067 79.367 31.846 81.4139 29.7957C83.4608 27.7454 86.3131 26.722 89.9708 26.7253C93.7157 26.7253 96.6016 27.732 98.6284 29.7454C100.655 31.7588 101.671 34.575 101.676 38.1941C101.676 40.8266 101.233 42.9843 100.347 44.6671C99.4852 46.3278 98.1494 47.6952 96.5093 48.5958C94.8315 49.532 92.7459 50.0001 90.2527 50.0001C87.7158 50.0001 85.6185 49.5957 83.9608 48.787C82.2578 47.943 80.8484 46.6056 79.9164 44.949C78.8661 43.2007 78.3418 41.0103 78.3435 38.3778V38.3778ZM85.2972 38.4105C85.2972 40.684 85.7167 42.3165 86.5556 43.3081C87.3945 44.2997 88.5438 44.7955 90.0035 44.7955C91.4985 44.7955 92.6553 44.3098 93.4741 43.3383C94.2929 42.3668 94.7023 40.6219 94.7023 38.1035C94.7023 35.9844 94.2744 34.4358 93.4187 33.4576C92.563 32.4794 91.4037 31.9912 89.9406 31.9928C89.3045 31.97 88.6714 32.0912 88.0887 32.3475C87.506 32.6037 86.9888 32.9884 86.5757 33.4727C85.7251 34.4794 85.2989 36.1253 85.2972 38.4105V38.4105Z" fill="white"/>
<path d="M98.7266 38.3778C98.7266 34.7068 99.75 31.8461 101.797 29.7958C103.844 27.7455 106.696 26.722 110.354 26.7254C114.102 26.7254 116.989 27.732 119.014 29.7454C121.039 31.7588 122.052 34.5759 122.052 38.1966C122.052 40.8291 121.61 42.9868 120.725 44.6697C119.863 46.3299 118.527 47.697 116.887 48.5983C115.21 49.5345 113.124 50.0026 110.631 50.0026C108.092 50.0026 105.995 49.5983 104.339 48.7896C102.636 47.945 101.226 46.6077 100.292 44.9516C99.2484 43.2016 98.7266 41.0103 98.7266 38.3778V38.3778ZM105.683 38.4106C105.683 40.684 106.102 42.3165 106.941 43.3081C107.78 44.2997 108.931 44.7964 110.394 44.798C111.889 44.798 113.046 44.3123 113.865 43.3408C114.684 42.3694 115.093 40.6244 115.093 38.106C115.093 35.9869 114.666 34.4383 113.812 33.4601C112.958 32.482 111.798 31.9937 110.334 31.9954C109.697 31.9709 109.062 32.0911 108.478 32.3469C107.894 32.6028 107.375 32.9877 106.961 33.4727C106.107 34.4794 105.681 36.1254 105.683 38.4106V38.4106Z" fill="white"/>
<path d="M121.327 27.1104H128.283V44.0757H139.138V49.6125H121.327V27.1104Z" fill="white"/>
</g>
<defs>
<clipPath id="clip0_86017_32">
<rect width="139.138" height="50" fill="white"/>
</clipPath>
</defs>
</svg>
